<?xml version="1.0" encoding="utf-8"?>
<!-- Generator: Adobe Illustrator 22.0.1, SVG Export Plug-In . SVG Version: 6.00 Build 0)  -->
<svg version="1.2" baseProfile="tiny" xmlns="http://www.w3.org/2000/svg" xmlns:xlink="http://www.w3.org/1999/xlink" x="0px"
	 y="0px" viewBox="0 0 264.5 260.8" xml:space="preserve">
<g id="map">
	<path fill="#F1F1F2" d="M92.6,189.5"/>
	<path fill="#F1F1F2" d="M155.8,74.6"/>
	<path fill="#F1F1F2" d="M82,94.5l20.4,0.3l0.6-1.3l0.7-2l0.2-2v-1.7l0.3-1.3l0.3-1l0.6,0.1l0.3,0.4l0.2,1l0.7,1.3l0.6,2.1l0.4,3.3
		l1,1l5.3,4.4l2.1,0.3l8.6,0.3l18.9,0.8l13.7,1l-0.1,0.7l-0.6,1.8l-1.9,5.3c0,0-0.2-0.2-0.2,2.3c0.1,2.5,0.1,7.6,0.1,7.6l0.5,2.1
		c0,0,0.1,2.3-0.9,3.6c-1,1.3-1.4,3.6-1.4,3.6l-0.7,4.4l-0.8,1.3l-1.7,0.9l-1.3,1.3l-1.1,1.6l-0.5,1.4l-1,0.6l-1.7,1.1l-1.3,1.2
		l-1.6,2.6l-1.4,2.1l-1.2,1.6l-1,1.2l-0.2,1.1l-0.1,1.6l0.6,0.9l-0.1,0.6v1.3h-2.5l-0.2-0.9l0.2-1.6l-0.2-0.9l-0.6-1.3l-1.2-0.1
		l-1.3,0.9l-0.7,0.6c0,0-1.1,0-1.6,0c-0.5,0-1.6-0.5-1.6-0.5l-1,0.2l-2.9,0.2l-1.9-0.8c0,0-0.3-0.3-1.3-1c-1-0.7-1.8-0.6-2.1-0.6
		c-0.3,0-2-0.2-2.8,0.2c-0.8,0.3-0.4,0.4-1.2,0.4c-0.8,0-1.7,0.6-2,0.8c-0.2,0.2-1,1.4-1,1.4l-0.5,0.9l-1.4-0.1h-0.6l-0.7-0.7
		l-1.7-1l-1.3-0.3l-1.5-1l-0.6-0.8l-0.4-2.7v-1l0.6-0.5l0.2-1V143l-12.2-0.1l-0.2-2.3l-0.5-2.3l-0.4-0.6l-0.7-0.6l-0.4-1h1.3
		l0.2-1.7l-0.3-2.4l-0.6-1l-0.6-4.2l-0.8-0.6l1-0.9l3.6-5.2l0.1-4.9l-0.7-1l-0.4-1.3l0.2-1c0,0,0.5-1.5,0.2-1.8
		c-0.2-0.3-0.5-0.7-0.7-1c-0.2-0.2-2.1-0.7-2.1-0.7s-1.9-0.7-2.1-0.7c-0.2,0-5.4,0.1-5.4,0.1l0.2-3.2l-0.7-1.3l0.4-1.7L82,94.5z"/>
	<path fill="#F1F1F2" d="M106.9,153.1l0.4,1.8c0,0,0.9,1.1,1,1.4c0.1,0.3,0.1,1.6,0.1,1.6l-1.1,1.3l-0.2,2.1c0,0,0.4,1.6,0.3,1.8
		c-0.1,0.2-1.3,1.8-1.3,1.8l-1.1,1.3l-0.2,1.2l1,1.2l-0.7,1.4c0,0-0.4,0.8-0.5,1.1c-0.1,0.3,0.4,1,0.4,1.4c0,0.4,0.6,1.7,0.6,2
		c0,0.2,0.4,1.3,0.4,1.3v2.1l0.2,2.9v1.7l2.4,0.2l0.6,0.2h3l3.4-0.1l2.2,0.5l1.5,0.5l0.9,0.9l0.7,1.4l0.3,1.9v1.7l0.6,0.5l0.6,1
		l0.2,1.4l0.3,1.9l0.6,0.7l1.9-0.2l1-0.6l1.1-0.6l1.4,0.1l0.6,0.7l0.9,0.2l0.6-0.8l0.2-1.8l1.4-1.1l0.2-1.1l0.9-1.1l1-1.2l3.2-1.7
		l1.2-1.2l2-1.8l3.2-2.5c0,0,0-1,0.1-1.3c0.1-0.2,0.9-1.2,0.9-1.2l0.2-1.4l1.1-1.7l1.7-2.3l1.3-1.7l1.3-1l0.6-0.4v-4.7l-1.8-0.6
		l-2.5-0.8c0,0-2.6-1.3-3-1.7c-0.4-0.3-1.5-0.8-1.8-1c-0.3-0.2-1.6-0.3-2-0.3c-0.4,0-1.3,0.2-1.7-0.2c-0.4-0.3,0-2.5,0-2.5
		s-1.4-0.4-1.6-0.7c-0.2-0.3,0.2-0.7-0.3-1c-0.5-0.2-1.7-0.2-2.2-0.2c-0.6,0-1.9,0-1.9,0l-0.5-1.5l0.6-0.7l0.4-1l0.3-1.2l-0.6,0.2
		l-0.4,0.3l-1.3,0.6h-1.5c0,0-1.5,0.1-1.7,0.1c-0.2,0-1.7,0.2-1.7,0.2s-1.3,0-1.8,0c-0.5,0-1.2,0.1-1.7-0.2
		c-0.5-0.3-1.4-0.6-1.7-0.7c-0.2-0.1-1.8-1.1-1.8-1.1s-0.6-0.3-1-0.3c-0.3,0-1.7,0.2-1.9,0.2c-0.2,0-2,0.6-2,0.6l-1,0.8l-1,0.8l-1,1
		l-0.8,0.1c0,0-1.2-0.2-1.5-0.2C108.4,154,106.9,153.1,106.9,153.1z"/>
	<path fill="#F1F1F2" d="M156.6,121l1.4,0.9l1.3,1l1.3,0.2l1.3,1.3l1.7,0.5l0.3-2.1l1-0.6l2.4-0.1l0.2,1.4l0.3,1l1,0.2l1.7-0.2
		l1.3,0.2l1.1,0.6l0.6,0.3l1.7,0.1v-0.9l1.7-0.4l1.2-0.7l1.7-0.4l1.7-0.5l1.4-0.3l1,0.1l0.1,2.5l-0.6,0.3l0.2,4.2l0.6,0.7l0.7,1
		l0.5,0.3v2.6l-0.2,0.5l-0.7-0.1l-0.9-0.7l-1-0.4l-1,0.1l-0.3,1v0.8l-1.4,0.3l-1,0.2v1v2.2l0.3,0.9v0.5l0.2,1l-1,0.1l-1.5,0.2
		l-0.9,1.7l-0.3,1.3l-0.1,1.3l0.3,1l0.5,0.6l0.6,1l0.1,0.7l-1,0.8l-0.9,1l-0.3,0.9l0.2,1l0.7,0.3l0.3,0.6v1.4v0.7l-1,0.7L174,157
		l-0.9,1l-0.2,0.6l-0.9-0.5l-1.5-0.3h-1.8l-2.1-0.1c0,0-1,0.2-1.3,0.2c-0.2,0-1.4,0.4-1.4,0.4l-1,0.8l-1.9-0.2l-2.5,0.4
		c0,0-1.1,0.2-1.3,0.2c-0.2,0-1.3,1.1-1.3,1.1l-1.2,1.4l-0.9,1l-1.4,1.7l-1.5-1.1l-1.7-0.9c0,0-1-0.6-1.3-0.6c-0.4,0-2-1-2.2-1
		c-0.2,0-1.3-0.9-1.6-1c-0.2-0.1-0.6-0.6-1.3-0.9c-0.7-0.2-1.5-0.6-1.5-0.6l-0.7-0.8l-0.2-0.9l-1.2-0.7l-0.3-1.4v-1.3l-0.2-1.1
		l-0.2-2.2l1-2.3l1.2-0.6l1.2-1l0.6-1.7l2.3-2.7l1.3-0.5l1.5-0.6l0.2-0.8l0.6-1.7l1.2-1.7l1-0.5l1.4-1.1l0.5-1.3l0.7-3.1l0.9-1.7
		l0.4-1.7c0,0,0-1,0.3-1.7c0.3-0.6,0.4-2.1,0.7-2.3c0.3-0.2,0.6-1.7,0.6-1.7L156.6,121z"/>
	<path fill="#F1F1F2" d="M140.3,185.9l2.3,0.2l2.4,0.2h1.9l1.8,0.2l1.4,0.3l1.5,1l1.1,0.3h2.2h1.7h2.1l1.1,0.2l0.5,0.7l0.7,0.7
		l0.6,0.6l0.3,0.9v1.3v1l0.1,1l0.3,0.8l0.4,0.2l0.2,0.8l0.6,0.7l0.2,0.9l-0.1,1.3l0.1,0.7l1.7,0.1h2.2l0.7,0.2l0.4,0.8l0.1,1.1
		l0.2,0.5l1.1,0.1l1.1,0.4l0.2,0.4l0.8-0.2l0.8-1.3l1.7-1c0,0,0.8-0.6,1-0.9c0.2-0.2,2.5-1.6,2.5-1.6l1.5-1.3l0.9-0.7l1.6-0.6
		l1.1-0.4l0.9-0.2l1-1l4-0.1l0.6-1.1l1.8-1.1l1-0.4l1.6-0.2l1-0.2l-0.1-0.7l0.1-0.7l1-1v-1.4H195l-1.2-0.8h-1.4l-1.3,0.6l-1.3,0.5
		l-1.1,0.6l-1.3,0.5c0,0,0,0.6-0.2,0.7c-0.2,0.1-2.3,0.1-2.3,0.1l-1.8,0.1l-0.9-0.4l-0.7-1.4l-0.3-1c0,0-0.4-1-0.5-1.3
		c-0.1-0.2-0.1-1.8-0.1-1.8l-0.1-1.7l0.1-1.1l0.2-1.1l-1.2-0.3c0,0-1.2,0-1.4-0.5c-0.2-0.5-1-1.4-1-1.7c0-0.2-0.4-1.2-0.4-1.6
		c0-0.4-0.1-1.3-0.1-1.8c0-0.6-0.1-0.9-0.1-1.1s-0.6-1.6-0.6-1.6l-0.9-0.6L174,170l-1,0.2l-2.1,0.4h-2.5l-1,0.1l-0.5,1l-0.3,0.8
		l-1.2-0.6l-1.4-0.6l-0.8-1.2c0,0-0.5-0.7-1-0.8c-0.6-0.1-1.2-0.1-2-0.1c-0.8,0-3,0-3,0l-1.5-0.5l-1-0.1l-1,0.5l-1.3,0.7l-1,1.3
		l-1.8,1.4l-1.4,1.7l-0.4,1.2l-1,1.5l-0.2,1.3l-0.7,1.1l-0.1,1l-0.7,1.2l-1.4,1l-1.5,1.3L140.3,185.9z"/>
	<path fill="#F1F1F2" d="M195.6,185.7l2.1-1.3l1.3-0.2l2.4-0.2l1.6-0.4h0.9h1.2l1.6-0.5l1.3-0.7l0.7-0.3l0.9-0.4l0.6-0.6l0.9-1
		l0.3-1.4l0.3-1l0.1-1l1.1-0.7l0.5,0.3l0.4,0.9c0,0,0.6,0.3,0.9,0.5c0.2,0.2,1.3,0.3,1.3,0.3h1.7h0.7l0.1,2.5l0.4,0.7l-0.1,0.7
		l-0.7,0.5l-1.3,0.7l-0.6,0.3l-1.1,0.3l-1,0.8l-0.6,1l-0.7,1.1l-0.4,0.6v0.9l-1.5,0.2c0,0-2.1,0-2.4,0c-0.2,0-1.9,0-1.9,0l-0.7-0.6
		v-0.8h-1.1l-0.8,0.1v1.3l-0.6,0.6c0,0-1.9-0.1-2.1-0.1c-0.2,0-1.1-0.3-1.1-0.3l-1.2-0.3l-0.6,0.7l-0.6,0.2l-0.4-0.7l0.5-1.1
		l-0.3-0.9l-0.8-0.3L195.6,185.7z"/>
	<path fill="#F1F1F2" d="M214.6,176.1l1,0.4l0.9,0.4l2.5-0.3l0.6-0.7l0.8-0.8l0.6-0.9l1-1.3l1-1.3l0.5-0.9l0.6-1.7l0.3-1.5l1.6-0.8
		c0,0,0.6-0.3,0.6-0.6c0-0.3,0.2-2,0.2-2l0.2-2.7v-2.1l-0.6-1.6l-1-0.6l-1.2-0.9l-1-0.2h-1.8l-0.8,0.3l-0.7,0.5l-0.7,0.6v1l0.1,0.9
		l0.2,1.2l0.5,1l-0.5,0.7l-0.1,0.6v1.2l-0.2,1.5l-0.5,1.8l-0.5,1l-0.8,1l-0.4,1l-0.4,0.7l-1.3,0.2l-1,0.5l-0.1,1.3l-0.1,1.3
		l-0.2,1.5L214.6,176.1z"/>
	<path fill="#F1F1F2" d="M153,167.3l0.1,0.7l2.1-0.1h2l2.1,0.1l2.9,0.1l1.4,0.7l0.7,0.7l0.6,0.7h1.1l0.4-0.5c0,0,0.3-0.4,0.7-0.4
		c0.4,0,1.5,0.1,1.9,0c0.4-0.1,0.9-0.4,1.1-0.4c0.2,0,1.8-0.2,1.8-0.2s1.3-0.2,1.5-0.2c0.2,0,1.6,0,1.6,0l1,0.4l0.6,0.6l0.6,0.7
		l0.4,1.2l0.4,1.3v1.3l0.3,1.1l0.2,0.6l0.5,0.8l0.7,0.8l0.8,0.5l0.7,0.2l0.9,0.4l0.3,0.8l-0.1,1l-0.1,1l-0.4,0.8v1.2l0.1,1.1l0.4,1
		l0.3,0.5l0.5,0.8l0.1,0.8l0.1,0.6h1l1.5-0.1l0.3-0.8l0.7-0.8l1-0.4l0.4,0.4c0,0,0.8,0.1,1-0.1c0.2-0.1,0.7-0.4,0.7-0.4l1.3-0.4
		l1-0.5l0.8-0.4l1.5-0.4l1.3-0.3l0.9-0.4l1-0.3l1.4-0.3l1.3-0.2l0.9-0.2l1-0.1h1.8l1.2-0.1l1.3-0.5c0,0,1.4-0.6,1.4-0.8
		c0-0.2,1.3-1,1.3-1l0.7-1l0.6-1.5l0.5-1.4l0.5-0.9l0.6-1.1l0.7-0.8l0.4-1.2l0.4-1.4l0.8-1l1.8-0.1l0.5-0.8l0.6-1.4l0.8-1
		c0,0,0.1-0.8,0.1-1.1c0-0.3,0.4-2,0.4-2l-0.2-1l-0.4-0.5l0.2-1.2l0.6-0.4l-0.1-1.1l-0.7-0.5c0,0,0.1-0.8,0.1-1.1
		c0-0.2,0.5-1.2,0.5-1.2l0.3-0.5c0,0,0.1-0.8,0.5-1.1c0.4-0.2,0.8-0.4,0.8-0.4l0.5-0.1l0.5,0.1h1.4h1l0.1-0.5l-1.3-1.2
		c0,0-0.8-1.1-0.8-1.3c-0.1-0.2,0.1-2,0.1-2l0.3-1.8l0.7-0.4h1l0.1-1l0.5-1.1l0.7-0.8l0.6-0.7l0.1-1.4l-1.5-0.7l-1.1-0.5l-1.2-0.5
		c0,0-0.8,0-1,0c-0.2,0-1.3,0-1.3,0h-0.8l-0.9,0.4h-0.8l-0.2-0.8l-0.2-1.2l-1-0.8l-0.6-0.8l-0.7-0.3c0,0-0.8-0.1-1.1-0.1
		c-0.2,0-1.3,0-1.3,0l-0.6-0.1l-1.1-0.4l-2.1-1.1l-1.4-1.1l-1-0.8c0,0-0.7-0.1-1-0.1c-0.2,0-1.1,0.1-1.1,0.1l-0.1,0.6l-0.8,0.1
		l-1.4-0.1l-1-1.1l-0.3-0.7l-0.3-0.7l-0.8-0.5l-1.1-0.2l-1.1,0.1l-2.1,1.5l-3.6,2.3l-3.3,1.6l-1.5,0.5l-1,0.4l-0.1-1.6
		c0,0-0.7-0.8-0.9-0.8c-0.2,0-1.1,0-1.1,0l-0.7,0.9l-1,0.4l-0.6,0.2l0.1,1.7l0.4,1.2l-0.1,1.4l-0.2,1l-1.1,0.6l-1-0.1l-1,0.5
		l-0.1,1.1l-0.1,1.8l0.6,0.8l0.1,1l0.1,1.1l-0.1,1l-0.9,0.7l-0.4,0.8l0.2,1l0.5,0.2l0.2,1l-0.2,1.4l0.2,1.1c0,0-0.4,0.4-0.5,0.7
		c-0.1,0.4-1.1,1.3-1.1,1.3l-1.4,0.5l-1.1,1.1l-0.7,0.7l-0.8-0.9c0,0-1-0.7-1.2-0.7c-0.3,0-1.2,0-1.2,0h-1.8l-1.6-0.1l-1,0.2
		l-0.7,0.8l-1,0.4l-1.4,0.1l-1.2,0.2l-1.6,0.2l-1.2,0.1c0,0-0.7,0.1-0.9,0.2c-0.2,0.2-0.9,0.4-1.1,1c-0.2,0.6-1.7,2.4-1.7,2.4
		s-1.1,1.4-1.3,1.7C153,166.3,153,167.3,153,167.3z"/>
	<polygon fill="#F1F1F2" points="131.1,196.1 131.1,199.1 130.9,201.5 130.9,204.1 129.9,205.3 129.4,205.6 130,206 130.7,206 
		131.3,205.5 131.7,205.7 132.7,207.2 133.2,208.3 133.6,209.9 135.1,210.6 136.9,210.9 138.6,211 140.5,211.1 142.4,211.4 
		143.2,211.9 144.8,212.4 147.4,212.9 149.3,213 149.9,212.5 150,211.6 150.4,210.6 152.4,210.5 153.4,210.4 154.3,209.5 
		154.9,208.9 156.6,208.9 158.8,208.9 160.5,208.9 160.9,209.8 161.7,210.2 162.5,210.1 163.5,209.3 164.6,209.1 165.7,209.1 
		166.9,209.1 167.7,209.5 168.3,209.5 168.8,208.7 169.1,207.6 169.9,206.8 170.1,206 170.7,205.6 170.6,204.5 169.9,203.9 
		168.8,203.9 167.9,203.8 167.5,203.5 167.6,202.3 167.6,201.4 163.1,201.4 162.7,199.6 162.6,197.9 161.9,196.7 160.8,195.8 
		160.8,194.8 160.5,192.6 160.4,190.8 159.3,189.8 158,189.6 153.1,189.5 151.9,188.8 151.1,188.3 150.1,188 149.3,187.9 
		147.1,187.7 144.6,187.6 143.7,187.6 142,187.6 140.6,187.6 139.1,187.6 138.3,187.6 137,188.3 135.6,189.4 134.3,190.7 
		133.8,191.8 132.2,193.5 131.7,194.6 	"/>
	<path fill="#0082CA" d="M134.4,212v1.7l0.1,1.7l0.2,1l1.3,0.1h1.7l1.6,0.1l1.7,0.2l2.4,0.6l1.4,0.6l1.1,0.2l1.4,0.5l1.3,0.3l1,0.6
		l5.6,5.3l1.2,0.4l1.6-0.1h1.7c0,0,0.5-0.2,0.6,0.2c0.2,0.5,0.5,1,0.5,1l-0.2,1l-0.4,0.9l-1,1l-0.4,0.9l1,0.2l1,0.4l0.6-1l1.3-1.2
		l1.2-1l2.1-1.1c0,0,0.6-0.5,0.6-0.8c0.1-0.3,0.6-2.3,0.6-2.3l0.5-1.7l0.2-1.9v-1.8l-0.1-2.1c0,0,0-1.6,0-1.8c0-0.2-0.1-2-0.1-2
		l-0.2-1.1l-1.4-1.1H165l-1,0.4l-0.6,0.6l-0.7,0.2l-1.3,0.4l-0.7-0.3l-0.5-0.6l-0.5-0.6l-1.2,0.1l-1,0.1l-1.6,0.2h-1l-0.9,1
		l-0.7,0.6l-1.3-0.1l-0.5,0.5l-0.7,1l-0.4,0.9h-1h-1.1L147,214l-1.7-0.2l-1.6-0.4l-1.3-0.5l-1.3-0.4l-1.3-0.2H139l-2-0.3l-1.5-0.2
		L134.4,212z"/>
	<path fill="#F1F1F2" d="M109,237.5l1.3-0.2l1.1-0.7l1.3-0.5l1.2,0.2l1.1,1.2l1.8,1.6l1.5,1.7v1l0.6,0.7l0.9-0.2l1-0.6l0.7-0.4
		l0.8,0.7l0.5,0.6l0.7,1l1,0.9l1.2-0.2l1,1l1.2,0.6l0.9,0.6l1,1.2l0.8,1l1.2-0.1l1.3,1l0.2,0.8l0.9,0.8l0.9,1.2c0,0,0.3,0,0.6,0.2
		s1.2,0.8,1.2,0.8l0.6,0.7l-0.1,1.8l-0.6,0.9c0,0-1,0.6-1,0.8c0,0.2-0.1,3.3-0.1,3.3l0.8-0.6l1.2-0.9l1.7-0.8l0.7-1.3l1.3-1.4
		l0.5-2.1l0.7-2l0.7-1.2v-2.1l0.7-1.2l1-0.8l0.1-1.8l1.7-0.4l0.9-0.6l0.2-1.9l1.1-0.8l0.8-3.3l0.7-0.4l1.1,0.3l0.1,0.6l0.9,0.3
		l0.6-0.7l0.9-0.2h1.2l-0.1,1.9l-0.8,0.8l-1,1.3l-1.7,1.5l-0.8,1.4l-0.7,1.1l-1.6,1l-1.7,1.1c0,0-1,0.5-1.3,0.6
		c-0.2,0.2-0.9,0.6-0.9,0.6l0.1,1l0.6-0.1l0.9-0.1l1.3-0.6l1.6-1.2l1.5-1.4l1.5-1.4l1.7-1.9l1.9-2.6l1.2-2.2l1.3-2.8l0.6-1.5
		l0.8-1.8l-0.7-0.5l-1-0.2l-0.2-1.5l0.6-1.6l0.9-1.3v-0.6l-2.1,0.2l-1.7-0.4l-1.3-0.3l-1.7-1.7l-1-1.1l-1.3-1.2c0,0-1.3-0.8-1.7-1
		c-0.3-0.2-1.8-0.6-1.8-0.6s-1.7-0.6-2.1-0.7c-0.5-0.1-1.9-0.1-2.4-0.3c-0.5-0.2-2.5-0.6-2.7-0.6c-0.2-0.1-1.4-0.6-2.9-0.6
		c-1.5,0.1-3.4,0.1-4,0.1c-0.6,0-1.7,0-1.7,0l-1.2,0.9l-1.3,1l-1.8,0.9l-1.4,0.9l-1.3,0.8l-1.3,0.7l-14.1,14.3L109,237.5z"/>
	<path fill="#F1F1F2" d="M185.7,44l1.4,0.1l1.2,1l1,0.1l1.6,0.1l1.3,0.5L193,47l1.7,1.2c0,0,0.8,1.1,0.8,1.3c0,0.2,0.2,1,0.2,1.2
		c0,0.2,0,1.2-0.2,1.3c-0.2,0.1-1.3,1.2-1.3,1.2l-0.3,1.1l0.1,1.4l0.8,0.7l1.1-0.3l0.5-1.2l1.3-0.7h1.1l0.5-0.7c0,0,0.5-0.7,1-0.7
		c0.4,0,2.3-0.1,2.3-0.1l1-0.5l0.8-0.4l1.5,0.3l1.2,0.6l1.5,1l1.1,0.5l2,0.2l1.1,0.3l-0.1,1.1l-0.8,0.9l-1.3,0.7l-0.5,0.4l-1.9,0.4
		l-0.8,1.7l-1,1.7l-0.7,1.2c0,0-0.1,2.1-0.1,3.2c0,1.1,0.5,2,0.5,2.4c0,0.4,0.4,1.7,0,2.1c-0.4,0.5-0.8,2-1.2,2.3
		c-0.4,0.4-0.2,2-0.2,2l0.1,1l1.1,1.3l-0.2,1.7l-0.7,1l-1.5,0.1c0,0-1-0.4-1.2-0.4c-0.2,0-1.5,0.1-1.5,0.1l-1.4,0.1l-0.9,0.5
		l-1.3,1.1l-1.1,1.2l-1.5,1.5l-1.5,0.6l-2.6,0.7l-1.7,1.4l-0.8,1.8l-0.2,1.2c0,0-0.4,1.5-0.4,1.7c-0.1,0.2-1,1.5-1.1,1.7
		s-0.7,2.1-0.7,2.3c0,0.2,0.1,2.1,0.1,2.1l0.4,1c0,0,0.4,1,0.2,1.1c-0.2,0.2-0.1,2.6-0.1,2.6l-0.7,1c0,0-1-0.4-1.2-0.4
		c-0.2-0.1-1.1-0.6-1.1-0.6s-0.5-1.5-0.6-1.9c-0.1-0.4-0.1-1.7-0.4-2c-0.2-0.3-0.8-0.7-1.1-1.1c-0.3-0.4-1.1-1.4-1.1-1.5
		c0-0.2,0.1-1.4,0.1-1.5c0-0.2,0.7-1.7,0.7-1.7s1.3-0.5,1.5-0.7c0.2-0.1,0.6-1.8,0.6-1.8v-1.5c0,0-0.2-0.2-0.6-0.7
		c-0.4-0.5-3.1-0.2-3.1-0.2l-1.4-0.9l-1.5-1.9c0,0-0.8-1.2-0.7-1.4c0.1-0.2,0.6-2.5,0.6-2.5l0.3-5.7l-0.2-1.9l-0.6-1.2
		c0,0-2.7-1.8-3-1.8c-0.2,0-1.7-0.4-1.7-0.4l-0.4-0.8l1.8-2.1l2.1-1.1l1.4-1.2l1.4-2.3l1.7-2.8l1.4-2l1.3-2l0.3-1.2l0.4-1.2l0.2-1.1
		c0,0,0.3-0.8,0.4-1c0.1-0.2,0.8-1.5,0.8-1.5s0.4-1.8,0.4-2c0-0.2,0.3-1.5,0.3-1.7c0-0.2,0.6-2.1,0.6-2.1L185.7,44z"/>
	<path fill="#F1F1F2" d="M183.6,111.6l0.1-1.9l0.8-1.8l1.3-0.7l0.8-0.8l1.1-1.2l1.1,0.2l0.7,1.1l0.8,1l1.1,0.4l1.4,0.7l1-0.1
		l1.4-0.8l1.1-0.5h1.9l0.7-0.8l1.7-1.4l1.1-1.8l0.4-1v-1.3l-0.2-0.5l-0.1-1.3l0.6-0.8h1.2l0.7,0.5c0,0,1.2-0.1,1.7,0
		c0.5,0.1,0.8,0.7,0.8,0.7h1.7l1.3-0.4l1.7-0.7l2-0.5l1.5-0.6l1-1.5l1.1-0.7l1.5-0.7l1,0.5l0.2,0.7l0.2,1.1l0.2,1.7l1,0.8l1.2,0.2
		l2.1-1.4l1.3-1.3l1.3-0.4l1-1.4l0.8-1l1-0.4h0.8l0.8,0.4l1.2,0.5l1,0.4l1.5,1.1l0.8,0.7l1,0.7l1,0.7l0.5,1.7l-0.1,1.1l0.2,0.8
		l1.1,0.6v0.6l-0.1,3.7l-1,0.5l-1,0.5v1.3l0.2,1l0.6,1.2l0.8,1.3l1.3,1.2l1.2,0.6l-0.6,1.8l-1.8,2.1l-1.5,1.8l-1.3,1.5l-0.1-0.7
		l-1.1-0.7l-1.3-0.1l-1.2,0.4c0,0-0.5,0.7-0.5,1.1c0,0.4,0.1,1.1,0.1,1.1v1.4l-0.6,1.2l-0.8,1.5l0.2,2.3l0.2,1.2l0.4,1l-0.1,1.1
		l-0.2,0.7l0.1,3.2l0.2,2.5l-0.1,1.4l0.5,1v1.2l-0.2,2.1l-0.6,1.3l-0.2,1.9l-0.5,1.7l-0.6,1.1v2l0.5,0.4v1l-1.7,1.5l-1.5,1.9
		l-0.8,0.2l-1.2-0.7l-0.6-1.2l-0.2-1.2l-1-0.7l-0.6-1.1l-0.2-1.2l0.1-1l1.1-1.2l0.8-1.5l1.2-1.2l0.7-1.5v-1.8l-1.9-1.4l-1.8-0.7
		l-1.5-0.6h-1.7H218l-0.8-0.5l-0.4-1l-1.3-1.3l-1.1-0.6c0,0-1.3-0.2-1.8-0.2c-0.5,0-1.3-0.4-1.3-0.4l-1.8-0.6l-1.4-1.2l-1.4-0.7
		l-0.8-0.4l-1.8-0.1l-1.3,0.2l-1,0.4l-0.5-1l-0.4-1.2l-0.7-1l-2-0.4l-1.1,0.1l-1.8,0.5l-1.8,1.3l-2.1,1.1l-1.8,1.2l-1.7,0.8l-1.2,1
		l0.1-1.7c0,0,0.2-1.8-0.1-2.1c-0.4-0.4-0.8-1.8-0.8-1.8l-0.8-1.3l-0.2-2.4l0.2-1.1l0.2-2v-2.6l-0.5-1.4l-0.4-2.4l0.6-1.2l0.4-1.5
		l-0.6-1.9L183.6,111.6z"/>
	<polygon fill="#F1F1F2" points="239.8,99.6 241,100.4 242.4,100.8 244,101.7 245.6,102.7 247.5,104.6 248,104.9 247.4,105.8 
		245.5,108.4 244.1,109.9 242.9,111.7 241.9,111.8 240.7,111.6 240,110.8 239.3,109.9 238.8,108.9 239,107.8 240,107.7 240.6,106.1 
		240.7,103.9 240.6,102.2 240,101.2 239.3,100.4 239.3,99.5 	"/>
	<polygon fill="#F1F1F2" points="238.8,97.9 239.9,98.5 241.2,99.3 242.5,99.8 244,100.5 244.8,101.1 245.9,101.7 247.2,102.7 
		248.2,103.4 249.3,103.7 250.4,102.8 252.2,101.4 253.7,99.5 254.9,98 255.7,97.2 256.2,95.8 256.4,94.8 254.7,94.3 253.1,94.6 
		252,94.9 251.4,96.6 250.1,97.3 248.5,97.5 246.6,97.5 244.8,97.5 243.7,97.1 242.5,96.4 241.8,95.8 240.9,95.8 239.8,96.4 
		239.2,97.2 	"/>
	<path fill="#F1F1F2" d="M213.9,55.1h1l1.4,0.5l0.4,0.6L216,57l-0.2,1l0.1,1l0.8,1.3l0.6,1.4l0.7,1.3v1.3l0.4,1.4v2.7l0.5,4.2
		l0.1,1.8l0.2,1.3l0.5,2.4l0.5,1.3l0.4,1l1.2,0.8l0.4,1.1c0,0-0.2,0.7-0.6,0.8c-0.4,0.1-0.8,1.3-0.8,1.3l0.1,1.7l0.5,1.3l0.2,1.2
		l-0.5,1.4l-2,1.2l-2,1.5l-1.4,1.3l-1.5,1.7l-1.7,1l-1.7,0.1l-1.1,0.7l-1.2,0.4H207l-1-0.1l-1.4-0.5l-1.8-0.4l-1,0.1l-0.6,0.7
		l-0.8,1l-0.1,1.4v1.2l-0.4,1.4l-0.7,1l-1,1l-1.3,0.4l-1.3,0.7l-1.3,0.7l-1.3,0.5c0,0-0.5-0.4-1.2-0.5c-0.7-0.1-0.7-0.1-0.7-0.1
		l-0.8-1.1l-0.5-0.8l-0.7-0.5h-1.5l-0.1-1.8l-0.1-1.5v-1.7l-0.4-1.3l-0.2-1.9l0.6-1.5l0.7-1.3l0.8-1.9l0.5-1.9l0.4-1.3l0.7-0.7
		l1-0.7l1.1-0.4l1.3-0.5l1.5-0.6l1.5-1.4l1.2-1.3l1.1-0.8l1.5-0.2l1.2-0.1l1.3,0.2h1.3l1.4-0.6l0.8-1.5l0.1-1.7l-0.4-1l-0.6-1.1
		l0.2-1.5l0.2-1.2l0.5-1l0.7-1l-0.4-1.2l-0.1-1.8l-0.2-2.1v-1.4l0.2-1.5l0.7-1.2l1-1.7l1.2-0.4l2.5-1.4l1.1-1.4L213.9,55.1z"/>
	<path fill="#F1F1F2" d="M218.3,55.2l-0.5,1.1l-0.4,1l0.1,1.3l0.1,0.6l0.5,0.8l0.5,1l0.4,0.7v1.2l0.6,1.2l0.1,1.3v1.9l0.1,1.3l0.1,2
		l0.2,2l0.1,2l0.2,1.5c0,0,0.1,0.7,0.2,1.3c0.1,0.6,0.8,1.9,0.8,1.9l1.2,0.6l0.5,0.8l-0.2,1.4c0,0,0.1,0.5-0.2,0.8
		c-0.4,0.4-0.2,1.2-0.2,1.2l1.3,0.1l1.7-0.1l1.5-0.1h1.3l1.1,0.4l1.3,0.8l1.1,1.3l1-0.1l1.2-1.2l0.7-0.8l-0.4-1.1l-0.4-0.8V81
		l0.7-1.5l0.2-1.8l1.2-2l1.7-2l1.2-2l1.1-1.9l1-1.8l1.7-1.1l-3.1-2.7l-2.6-2l-0.7-1.1c0,0-1.1-0.7-1.4-0.7c-0.4,0-1.5-0.7-1.5-0.7
		l-1.7-1.2l-1.8-1.2l-1.8-1l-1.8-1h-1.9h-2.5h-1.2L218.3,55.2z"/>
	<path fill="#F1F1F2" d="M242.6,68.3h1.1l1.5,0.6l1.4,0.7l1.9,0.1h2.3h1.9l1.7,0.2l1.3,0.7l0.8,1.1v0.8l0.7,1.8v1.3l0.2,1.9
		l-0.4,0.7h-2h-2.4l-1.5-0.6l-1.1-0.2l-0.7,0.2l-0.8,0.8l-0.1,1l-0.2,1.1H247l-0.6-0.8l-1.5,0.1h-0.6L244,79l1-1.7v-1.2l-1.8-0.4
		l-1.7,0.2l-1,1l-1.7,1c0,0-0.8,0.2-1.2,0.2c-0.4,0-1.2,0.1-1.2-0.2s1.1-1.8,1.1-1.8l0.8-1.4l1.8-2.7L242.6,68.3z"/>
	<path fill="#F1F1F2" d="M235.7,79.8l-0.6,1.5l0.2,1.1l0.6,1l-0.2,1.4l-0.2,1.1l0.7,0.4l1.4,0.1l1.9-0.4l1.5-1.1l1.9-1.2l0.7-0.1
		l1.9,0.4l0.2,1.2l-0.5,0.6l-0.6,2v0.8l0.4,0.5l1.1,0.2l0.8-1.1l1.5-1.1h1.1l2.3-0.4l1.9-0.5l1.4-1.3l1-0.7l1.1-0.2h2v-1.2
		c0,0,0.1-1.4-0.2-1.5c-0.4-0.1-0.7-1.3-0.7-1.3l-0.6-0.5l-2.9-0.5H253l-1.7-0.1h-1.4l-0.6,1.2l-1,1.3l-1.4,0.2l-1.1-0.8l-1.2,0.1
		l-0.8,0.5l-0.8-0.7l-0.8-1.2l0.6-1.8l0.8-1.2h-1.1l-1.3,0.7l-0.6,1l-1.1,0.5l-0.7,0.1l-1.7,0.1L235.7,79.8z"/>
	<polygon fill="#F1F1F2" points="219.1,93 220.4,94.1 220.9,95.1 221,95.9 221.6,96.8 221.6,97.3 221.9,97.9 222.8,97.4 223.5,96.6 
		224.2,95.4 225.4,95.4 226.1,94.3 227.2,93.4 228.7,92.4 229.9,92.1 231.1,92.3 232.4,92.8 233.7,93 234.9,94 236.5,94.8 
		237.3,95.9 238.6,95.8 239.9,94.8 240.9,94.2 241.9,94.9 243.2,95.8 244.4,96.1 245.9,96.7 248.1,96.6 250,96.5 250.4,95.8 
		251.2,94.5 252,93.9 253.2,93.5 254.5,93.5 255.9,93.5 257.2,93.5 257.6,92.7 258.1,91.4 258.6,89.8 259.3,87.6 259.3,85.9 
		258.3,85.3 256.9,85.2 256,85.8 255.1,86.5 254.1,87.1 253.1,87.6 251.6,87.8 250.4,87.8 249.3,88.3 248,88.9 247.4,89.7 
		246.6,90.7 245.1,90.8 244.3,90.1 244,88.7 244,87.4 244.2,85.8 244.3,85.2 243.7,84.9 242.6,85.2 241.6,85.9 240.1,87 239.1,87.6 
		237.2,87.4 236.3,87.4 235.3,87.4 233.6,87.4 232.1,87.6 230.7,87.4 229.7,86.1 228.4,85.4 227.3,85.4 225,85.2 221.9,85.1 
		222.2,86 222.3,86.8 222.8,88.2 222.8,88.7 222.2,89.8 221.4,90.8 220.3,91.7 	"/>
	<path fill="#F1F1F2" d="M1.1,84.4c0,0,10.2,4.6,20,5.2c2.1,1.4,3.8,2.2,3.8,2.2s16,8.7,19.7,9.7l-0.2,1.1l-2.1,1.3l-1.9,1l-1.1,1.3
		l-2.1,0.3l-1.6,0.6l-1.3,1.7l-1,0.5l-1.3-0.2l-1.7-0.8h-2.7h-4.4l-2.1-0.2l-0.5-1.6l-0.2-3l0.5-2.1v-2.2l-0.2-1.4l-2.1,1.4
		l-2.4,1.9l-1.7,0.6l-4.3-0.5l-0.3-1.9L8.2,98l-1.4-0.6H5.2l0.3-1.1v-1.9l-1.1-1.3L2.5,91l-1.4-2.9L0,86v-1.4L1.1,84.4z"/>
	<path fill="#F1F1F2" d="M1.1,82.3l3,1.9c0,0,14,4.3,17.1,4.3c0.6,0,1.6,0.8,1.6,0.8l1.9,1.3c0,0,17.8,9.7,19.7,9.8
		c1.9,0.2,1.9-0.6,1.9-0.6l1.1-1l1.1-1.1l1.9-0.3l2.2,0.6l2.2-1h1.4l1.1-0.5l0.5-1.3l2.1-0.5l2.7-0.2l0.6-1.4l1-0.6v-1.4l2.1-1.3
		l0.2-1.4l6.3-0.3l0.8,1.6l1.6,1.4l2.1,2.1l1.9-0.2l1.7,0.3h10.5l9.2-0.2l1.6-1.3l0.2-3.2l1.1-2.5l0.3-2.7l-1-2.2l-0.6-1.6
		l13.5-27.3l0.6-2.4l0.6-1.3l-2.5,0.6l-2.1-1.4l-2.1-1.7l-5.2-0.5l-1.6-2.4c0,0-3.2-4.4-3.5-4.4c-0.5,0.5-0.2-1.3-0.2-1.3l-0.1-2.2
		l-0.3-1.8l-1.2-0.1h-1.9l-2.6,0l-0.7,0.2l-1.1,1.5l-1.6,2.1l-0.7,1.2c0,0-0.3,1.5-0.3,1.6c0,0.1-0.5,0.6-0.5,0.6l-1,0.4l-1.7,0
		l-1.2-0.9L84,39.4L83,39.6c0,0-0.9,0.6-1,0.6c-0.1,0-0.7,1-0.7,1l-0.1,1.6l-0.1,2.4l-0.9,0.2l-1.1,0c0,0-1-0.6-1.1-0.6
		c-0.1-0.1-0.7-0.7-0.7-0.7s-0.9-0.8-1-0.9c-0.1-0.1-0.8-1-0.8-1s-0.8-0.8-0.9-0.9c0-0.1-0.5-0.8-0.5-0.8v-0.6l0-1.4l-0.1-2.8
		c0,0-0.2-1.1-0.2-1.1c0-0.1-0.3-1.9-0.3-1.9c0-0.1,0-1.8,0-1.8s-0.1-1.5-0.2-1.6c-0.1-0.2-0.7-1.1-0.8-1.2
		c-0.1-0.1-0.7-1.3-0.7-1.3L71.1,25c0,0-0.5-1.3-0.6-1.5c-0.2-0.3-0.7-1.2-0.7-1.3c0-0.1-0.2-0.5-0.2-0.5l-1.8,0l-0.3-0.4l-0.6,0.2
		l-0.6,0.5l-1.4,0.6l-0.3,1.2l-1,1.1l-1,1.1l-1.4,0.2L60,26.6l-0.9,0.7L58,28.1l-1.4,1.5L55.3,30l-1.1,0.3l-0.7-0.5L53.4,29h-0.9
		l-0.7,0.1L51.5,30l-1.3,0l-1.7,0l-0.5-0.4c0,0-0.4-0.6-0.5-0.6c-0.1-0.1-0.9-0.7-0.9-0.7l-0.7-0.5l-2.6-0.2l-0.1-3.8l-0.7-1.2
		l-0.4-0.7l-0.4-0.4l-0.9,0.7l-0.8,0.6l-0.5,0.9l-1.2,0.7l-1-1.2l-0.3-0.6l-0.6,0.9l-0.6,0.8l-3.1,0L30.7,24l-3-0.1
		c0,0-0.6,0.2-0.7,0.2c-0.1,0-0.9,0.5-0.9,0.5s-0.3,0.6-0.3,0.7c0,0.1,0.2,1.3,0.2,1.3l0.1,0.9c0,0,0.2,0.3,0.5,0.4
		c0.3,0,1.2,0,1.2,0s1.1,0.1,1.2,0.1c0.1,0,0.5,0.3,0.5,0.3s0.4,0.3,0.5,0.4c0,0.1,0.5,0.8,0.5,0.8l0.2,0.9c0,0,0,0.8,0,0.9
		c0,0.1-0.2,0.8-0.2,0.8h-0.7l-1.2,0.1l-0.3-0.3l-1.1-0.1L26.2,32L25,32.1l0,1.1l0,3.4l0.6,0.6c0,0,0.7,0.4,0.8,0.5
		c0.1,0.1,0.6,0.4,0.7,0.5c0.1,0.1,0.6,0.3,0.6,0.3l0.1,1.7L27.6,41l0.9,1.1l0.4,1.1l-0.4,4.3v2c0,0-0.5,1.5-0.5,1.8
		c0,0.3-0.7,1.9-0.7,1.9l0,2c0,0-0.4,0.6-0.4,0.8c0,0.2-0.1,2.7-0.1,2.7s-0.4,1.2-0.5,1.4c0,0.2,0,1.7,0,1.7s-0.7,2-0.7,2.1
		c-0.1,0.1-0.7,1.1-0.8,1.1c-0.1,0-1.2,0-1.4,0c-0.1,0-1.3-0.4-1.4-0.5c-0.1-0.1-0.6-0.4-0.6-0.4H20l-1,0.4l-0.4,0.7L17,65.9
		l-2.2,0.2l-2,0.1l-1.2,0.5l-1.4,0.8l-1,0.7c0,0-1.5,1-1.5,1.1c0,0.1-1.3,1.7-1.4,1.8c-0.1,0.1-0.5,1.5-0.5,1.5l-0.2,1L5,74.5
		c0,0-0.5,0.8-0.6,0.9c0,0.1,0.2,1.4,0.2,1.4l0.2,0.9l-0.6,1.6l-1.1,1c0,0-1.2,0.7-1.2,0.8C1.9,81.1,1.1,82.3,1.1,82.3z"/>
	<path fill="#F1F1F2" d="M61.3,6.5c0.2,0,2.5,0,2.5,0l1.1,1.1l1.1,0.8l2.3,0.2l1.5,0.2l0.6,1.2l1.3,0.1h1.5l0.6-0.9L73.9,8L75,7.4
		L76.5,7h2.3l1-0.3l1.4-1l1.4-0.7l1.1-0.5l1.7-0.2l1.2-1.4l1.2-1.6L88,0l2.6,0.1l0.6,1.2l-0.6,1l-0.5,1l0.1,1.2l1.2,0.2l1.2,0.5
		l0.8,1.4l0.5,1.1l-0.3,1.1l-0.9,0.9l-0.2,1.1l-0.6,2l0.1,1l-0.4,0.8v2.3l0.1,1.2l0.7,0.9l0.6,1.2l0.1,1.8l0.9,0.5l1.4,1.2l0.8,1.1
		l1.8,1.2l0.5,0.7l0.1,3.5v2l-0.8,0.4h-2.6l-2.6-0.1c0,0-0.5,0.6-0.8,0.7c-0.2,0.1-1.5,1.6-1.5,1.6l-0.6,1.2v0.7L89.1,37l-0.5,0.6
		L88,38.4l-0.1,1.1L87.5,40l-0.9,0.2l-0.5-0.5L85.6,39l-1.2-0.8l-1-0.4l-1.1,0.2l-0.8,0.8l-0.8,0.6l-0.9,1.1l-0.2,3l-0.4,0.4
		l-0.9-0.6l-1.4-1.7l-0.8-1l-0.5-0.5l0.7-1v-1.1L76,37.4l-0.5-0.9l-0.2-1.1l-0.2-1.5L75,32.7l-0.1-2v-2.2l-0.6-1.1l-0.7-0.8l-0.6-1
		l-0.7-1.4L71.8,23l-0.7-1.5l-0.2-0.7L70,20h-0.5l0.1-2.3c0,0-1,0-1.1-0.1c-0.2-0.1-1.6-0.1-1.6-0.1L66,17.7l-1.2-0.2l-0.4-0.2h-0.5
		c0,0-0.2-4.8-0.2-5c0-0.2,0.7-1,0.7-1l0.4-0.7V8.7l-1.4-1l-1-0.3l-0.9-0.3l-0.4-0.5L61.3,6.5z"/>
	<path fill="#F1F1F2" d="M100.3,27.4l-0.1,4.5l0.1,1.9c0,0,0.4,3,0.4,3.3s0.4,1.5,0.4,1.5l1.1,0.8l0.6,0.7l0.3,1.4l0.8,1l1,1.2l1,1
		l1.2,0.1l1.1,0.1l0.4,0.2l1-0.4l0.8,0.1l0.9,0.6l1,1.2l1.2,0.5l1.3,0.8l1.2,0.1l0.7-0.6l1-0.2l1.1,0.6l-0.1,1l-0.1,1L118,50
		l-0.6,1.4l-0.4,1.4l-0.9,1l-1.3,3.3l-11.1,22.5l0.1,0.9l0.8,1l0.1,1c0,0,0.8,0.7,0.7,0.9c-0.1,0.2,0,1.5,0,1.5l0.7,0.8l0.5,0.8
		l0.5,1.5l0.8,0.9l0.2,1.6l0.1,2.4l1.4,1l1.6,1.3l1.1,1.1l1.3,1.1l0.9,0.2l2.5,0.2l3.3,0.4l0.9,0.4l8.4,0.4l7.9,0.1l5.2,0.4h5.3
		l7.2,0.3l2.1,0.1l0.8-2l1.8-2.9c0,0,1.3-1.3,1.5-1.4c0.2-0.1,1.1-1.2,1.1-1.2l0.7-1.8l0.2-1.8l-0.2-1.2l-0.7-0.7l0.2-1.8l0.7-1
		l0.3-1.4l0.4-1.3c0,0,0.5-0.3,0.8-0.5c0.3-0.2,1.8-1.5,1.8-1.5l1.2-0.7l0.6-0.9l1-1.7l0.1-1.6l-0.1-1.5l-0.7-0.1l-1.2-0.5l-0.5-1.2
		l1.5-1.8l3.8-3.3l2-0.9l1.5-1.9l3-4.8l2.1-2.8l0.1-2l0.5-1.2l0.8-1.4l0.8-2l0.3-3l0.6-0.8v-1.9l-1.1-0.7h-1.8l-0.5-1
		c0,0-1.8-0.2-2.1-0.4c-0.3-0.1-1.5-0.2-1.5-0.2l-1.7-0.2l-1.5-0.3l-1,0.1l-0.7,0.7l-3.7,4l-2.1,2.6l-1.6,0.9l-1.7,0.1l-1-0.6
		l-0.8,0.1l-0.5,0.7l-0.4,0.7l-1.1-0.4l-1-0.8l-2.9-0.5c0,0-0.9-0.4-1.1-0.5c-0.2-0.1-1-1.2-1-1.2l-0.9-2l-0.5-0.4h-1.4l-1.8,1.1
		l-1.7,0.8l-2.7,0.5l-0.7-0.7l0.4-1.3l1.5-0.3l-0.1-0.7l-1.8-0.2c0,0-1-1-1.2-1.1c-0.2-0.1-1.1-1.5-1.1-1.5l-0.2-1.5l-0.9-1.1
		l-1.8-2.6c0,0-0.3-1.5-0.6-2c-0.3-0.5-0.5-1.4-0.5-1.8c0-0.4-0.8-1.4-1.1-1.7c-0.4-0.3-0.7-1.7-1-2.1c-0.2-0.4-1.2-1.2-1.2-1.2
		l-1.8-1.1l-1.9-1.4c0,0-1.4-0.3-1.7-0.5c-0.2-0.2-1.6-0.7-1.7-1c-0.1-0.2-0.4-1.8-0.4-1.8l-0.2-1.7l-0.7-0.9c0,0-1.3,0-1.5,0
		c-0.2,0-1.5,0.4-1.5,0.4l-0.7,0.5h-1.5l-0.8-0.2l-0.2,0.8l0.1,1.3v1.2l-0.2,0.5h-1.6h-1l-2.8-0.2l-1.4,0.1c0,0-1.6-0.1-1.9-0.1
		c-0.3,0.1-2,1.2-2,1.2l-1.5,0.6l-1.6,0.8l-2.6,0.9l-1.2,0.9L100.3,27.4z"/>
	<path fill="#F1F1F2" d="M128.3,20.1l1.8,0.6l1.2,0.2l1.1-0.2l0.5-0.5l1.5-0.1h1.3l1.1,0.5l1.1,0.1l1.5-0.1l1.5-1c0,0,0.7-1,0.8-1.3
		c0.2-0.3,1.3-3,1.3-3l1.7-2.9l1.5-2.4l1.6-2l1.2-1.1l1.1,0.8l0.8,1c0,0,0.1,1.2,0.1,1.5c0,0.2,0.1,3,0.1,3l0.3,0.9l0.7,1
		c0,0,0.5,0.5,0.5,0.8c0,0.3,0.2,1.7,0.2,1.9c-0.1,0.2,0.4,2.1,0.4,2.1l0.5,1.1l1.1,1.2l1.2,1l1.4,0.2l0.7,0.7l0.7,1.2l-0.2,1.4
		c0,0-0.6,0.2-0.8,0.5c-0.2,0.2-1.5,1.6-2.2,2.2c-0.7,0.6-1.8,2.3-1.8,2.3l-1.7,1.4c0,0-1.2,0.8-1.7,1c-0.5,0.2-1.2,0.9-1.2,1.1
		c0,0.2-0.8,2-0.8,2l-0.9,1.2l-1.1,1.4l-0.4,1.7c0,0-0.3,0.4-0.7,0.4c-0.4,0-1.3,0-1.3,0s-0.5-0.8-0.7-1c-0.2-0.2-0.8-1.2-1-1.8
		c-0.2-0.5-1.1-2-1.1-2s-0.6-1-0.9-1.4c-0.3-0.4-0.9-1.6-1.2-1.9c-0.3-0.3-0.8-1-0.8-1s-0.1-1.3-0.2-1.6c-0.1-0.3-0.6-2.1-1-2.4
		c-0.4-0.4-1.1-2.3-1.3-2.5c-0.2-0.2-0.5-1.1-1.1-1.3c-0.5-0.2-1.3-0.5-1.8-0.8c-0.5-0.3-1.5-0.7-1.8-0.7c-0.3-0.1-0.9-0.8-1.5-0.9
		c-0.7-0.1-1-0.4-1.3-0.7c-0.3-0.2-1.1-1.1-1.1-1.5C127.5,20.3,128.3,20.1,128.3,20.1z"/>
	<path fill="#F1F1F2" d="M86.3,125.5c0,0-2.3-0.4-2.6-0.4s-2.4,0.1-2.9,0c-0.4-0.1-2-0.2-2-0.2l-1.4-1l-0.7-1.1l-0.9-0.5l-2.2-0.4
		l-1.4-0.3l-0.8-0.8l-0.8-1l-0.5-0.9l-0.7-0.4l-1.1,0.5h-1l-0.7-0.6l-0.9-0.5l-1-0.1l-2.1,0.2l-1.4-0.7l-1.2-1.4l-1.7-1.5l-1-1
		l-0.9-1.2l-0.7-2l0.1-2.7l-0.4-1.2l-0.3-1.5l0.8-0.7l0.1-3.1l-0.5-1.1h-1.4c0,0-2.4,0.1-2.7,0.1c-0.4,0-2.4,0.5-2.4,0.5l-1.4,0.4
		l-0.3-0.4l0.5-0.7l0.7-0.8c0,0,1-0.2,1.1-0.2c0.2,0,1.5,0,1.5,0l1.8-0.1l1.9-0.4h2.2l0.9-0.6l0.8-1.1l0.7-0.8h3.1
		c0,0,0.9-0.1,1-0.4c0.1-0.3,0.2-1.4,0.2-1.4l1.1-0.7l0.2-1.4l0.5-0.7l1-0.1l0.8-1.4l0.8-0.7l1.1,0.1h1.8l1.1,0.9l1.7,1.1l1.1,1.2
		l1.1,1.2l0.9,0.6l0.8,0.1l0.7-0.2h0.9l0.6,1.6l-0.2,0.9l0.2,1.2l0.2,1.1l-0.1,2l-0.4,1.4l0.2,2l0.2,1v1l-0.1,1.5l0.3,0.4l0.2,0.8
		l2.1-0.2l2.9,0.1h2.8l0.3,1l1.5,0.2l0.9,0.4l-0.2,0.7l-0.9,1l-0.1,1.1l0.6,1.5l0.9,1.5l0.1,2.9l-0.7,0.8l-1.4,2.1L86.3,125.5z"/>
	<path fill="#F1F1F2" d="M169.1,70.9l1.8,0.2l1.4,0.6l1.8,0.7l0.6,1.2l0.6,2.4l-0.2,2.6L175,81l-0.5,1.2l-0.5,1.2l0.1,1.3l1.4,1
		l0.8,1.2l1.1,1.3l1.8,0.8h1.8l0.5,1.3l-0.6,1.1l-1.2,0.6l-0.8,1.1l-0.2,1.3l-0.2,1.3l0.6,1l1.1,1.4l0.7,1.1l0.2,1.3l0.4,1.1
		l0.8,1.3l0.7,0.6l1.1,0.7l1.3,0.2l0.5,0.7l-0.8,0.6l-1.1,1.2l-0.7,1.1l-0.8,1.4l-0.1,1.8v1.1l1.4,1c0,0,0.1,0.2,0,0.7
		c-0.1,0.5,0,2.5,0,2.5l-0.6,0.8v1.4l0.5,0.8l-0.1,1.4l-1,0.1l-2.9,1.2l-2,0.5l-2.4,0.4l-1.3,0.2l-0.2,0.7l-1.8-1l-1.2-0.5l-1.1-0.5
		l-1.2-0.7l-1-1h-1l-1.9,0.1l-1.3,1l-0.6,1.2l-1.4-0.5l-1.2-0.5l-0.8-1l-1.1-1.9c0,0,0.2-1-0.2-1c-0.5,0-1.8,1-1.8,1l-0.6-2.1v-3.9
		l0.5-4.3l1.2-3.4l1.1-2l0.5-2.1l0.2-2.5l0.7-1.4l1.9-2l1-1l1-1.4l0.7-1.5l0.5-2v-1.4l-0.5-1.7l0.1-1.8l0.5-2l1.8-1l1.7-1.4l1.2-1.3
		l0.7-1.8l0.5-2v-1.8l-1.1-1.3L169.1,70.9z"/>
	<path fill="#F1F1F2" d="M156.9,46l0.7-0.5l1-0.2l0.6,0.2l0.7,0.4l0.8-0.5l0.7-0.7l0.8-0.5l0.8,0.4l0.6-0.4l1.1-1l1.3-0.1l1.1-1.5
		l1-1.4l0.2-1.2l0.4-1.2l-1.9-0.1l-1.3-0.2h-1.7l-0.8,0.1h-1.7l-1.1-0.4l-1.4-0.5l-1.2,0.2l-0.5,1.3l-0.1,1.1l-0.1,1.3
		c0,0,0.2,1.3,0,1.7c-0.2,0.4-0.4,1.9-0.4,1.9l-0.1,1.7L156.9,46z"/>
	<polygon fill="#F1F1F2" points="161.8,36 162.9,35.2 162.5,34.1 161.5,34.3 160.8,35.5 	"/>
	<path fill="#F1F1F2" d="M160.7,32.6l-0.6,1.5L160,35c0,0-0.7-0.2-1.1-0.2c-0.4,0-1.8-0.2-1.8-0.2l0.6-1.1l1.1-1.3L160.7,32.6z"/>
	<polygon fill="#F1F1F2" points="153.5,36.9 152.2,38.3 152,36.9 152.4,35.3 153.7,34.6 154.9,34.6 154.9,35.3 154.4,36.4 	"/>
	<polygon fill="#F1F1F2" points="150,40.6 148.9,41.8 148,43.3 146.9,43.9 147.6,42 148.7,40.1 149.5,39.6 	"/>
	<polygon fill="#F1F1F2" points="154.3,40.2 153.4,40.4 152.9,41 153.7,41.3 154.4,41.6 155.7,40.9 154.9,40 	"/>
	<polygon fill="#F1F1F2" points="154.7,37.8 155.7,37.8 155.8,36.4 155,36.8 	"/>
	<polygon fill="#F1F1F2" points="155.3,43.7 155.2,44.6 154.1,44.6 154,43.5 154.1,42.8 154.9,42.8 	"/>
</g>
<g id="textos">
	<path fill="#BBBDBF" d="M116.6,119.5l1.8,4.4l1.8-4.4h0.9v5.4h-0.7v-2.1l0.1-2.3l-1.8,4.4h-0.5l-1.8-4.4l0.1,2.3v2.1h-0.7v-5.4
		H116.6z"/>
	<path fill="#BBBDBF" d="M126,120.1h-1.7v4.8h-0.7v-4.8h-1.7v-0.6h4.2V120.1z"/>
	<path fill="#BBBDBF" d="M121.9,168l1.8,4.4l1.8-4.4h0.9v5.4h-0.7v-2.1l0.1-2.3l-1.8,4.4h-0.5l-1.8-4.4l0.1,2.3v2.1h-0.7V168H121.9z
		"/>
	<path fill="#BBBDBF" d="M129.2,171c-0.6-0.2-1.1-0.4-1.3-0.6c-0.3-0.3-0.4-0.6-0.4-1c0-0.4,0.2-0.8,0.5-1.1
		c0.3-0.3,0.8-0.4,1.3-0.4c0.4,0,0.7,0.1,1,0.2c0.3,0.1,0.5,0.3,0.7,0.6c0.2,0.3,0.2,0.5,0.2,0.8h-0.7c0-0.3-0.1-0.6-0.3-0.8
		c-0.2-0.2-0.5-0.3-0.9-0.3c-0.4,0-0.6,0.1-0.8,0.2c-0.2,0.2-0.3,0.4-0.3,0.6c0,0.2,0.1,0.4,0.3,0.6c0.2,0.2,0.5,0.3,1,0.4
		s0.8,0.3,1.1,0.4c0.3,0.2,0.4,0.3,0.6,0.5c0.1,0.2,0.2,0.4,0.2,0.7c0,0.4-0.2,0.8-0.5,1.1c-0.3,0.3-0.8,0.4-1.4,0.4
		c-0.4,0-0.7-0.1-1-0.2c-0.3-0.1-0.6-0.3-0.7-0.6c-0.2-0.2-0.3-0.5-0.3-0.8h0.7c0,0.3,0.1,0.6,0.4,0.8s0.6,0.3,1,0.3
		c0.4,0,0.7-0.1,0.9-0.2c0.2-0.2,0.3-0.4,0.3-0.6c0-0.3-0.1-0.5-0.3-0.6C130,171.3,129.7,171.2,129.2,171z"/>
	<path fill="#BBBDBF" d="M157.5,149.4c-0.2,0.3-0.4,0.5-0.8,0.6c-0.3,0.1-0.7,0.2-1.1,0.2c-0.4,0-0.8-0.1-1.2-0.3s-0.6-0.5-0.8-0.9
		c-0.2-0.4-0.3-0.8-0.3-1.3v-0.5c0-0.8,0.2-1.4,0.6-1.9c0.4-0.4,0.9-0.7,1.6-0.7c0.6,0,1,0.1,1.4,0.4c0.3,0.3,0.6,0.7,0.6,1.2h-0.7
		c-0.1-0.7-0.6-1.1-1.3-1.1c-0.5,0-0.8,0.2-1.1,0.5c-0.2,0.3-0.4,0.8-0.4,1.5v0.4c0,0.6,0.1,1.1,0.4,1.4c0.3,0.4,0.7,0.5,1.1,0.5
		c0.3,0,0.5,0,0.7-0.1c0.2-0.1,0.4-0.2,0.5-0.3V148h-1.3v-0.6h2V149.4z"/>
	<path fill="#BBBDBF" d="M162.9,147.6c0,0.5-0.1,1-0.3,1.4c-0.2,0.4-0.4,0.7-0.8,0.9c-0.3,0.2-0.7,0.3-1.1,0.3
		c-0.4,0-0.8-0.1-1.1-0.3c-0.3-0.2-0.6-0.5-0.8-0.9c-0.2-0.4-0.3-0.8-0.3-1.3v-0.4c0-0.5,0.1-1,0.3-1.4s0.4-0.7,0.8-0.9
		s0.7-0.3,1.1-0.3c0.4,0,0.8,0.1,1.1,0.3c0.3,0.2,0.6,0.5,0.8,0.9c0.2,0.4,0.3,0.9,0.3,1.4V147.6z M162.2,147.3
		c0-0.6-0.1-1.1-0.4-1.5c-0.3-0.3-0.6-0.5-1.1-0.5c-0.5,0-0.8,0.2-1.1,0.5c-0.3,0.3-0.4,0.8-0.4,1.4v0.4c0,0.6,0.1,1.1,0.4,1.5
		c0.3,0.4,0.6,0.5,1.1,0.5c0.5,0,0.8-0.2,1.1-0.5s0.4-0.8,0.4-1.4V147.3z"/>
	<path fill="#BBBDBF" d="M168.4,136.3v-4.1h1.1c0.4,0,0.7,0.1,0.9,0.2c0.3,0.2,0.5,0.4,0.6,0.7s0.2,0.6,0.2,1v0.3
		c0,0.4-0.1,0.7-0.2,1s-0.4,0.5-0.6,0.7s-0.6,0.2-1,0.2H168.4z M168.9,132.7v3.2h0.6c0.4,0,0.7-0.1,1-0.4s0.3-0.6,0.3-1.1v-0.2
		c0-0.5-0.1-0.8-0.3-1.1s-0.5-0.4-0.9-0.4H168.9z"/>
	<path fill="#BBBDBF" d="M174.4,134.5h-1.7v1.8h-0.5v-4.1h2.5v0.4h-2v1.4h1.7V134.5z"/>
	<path fill="#BBBDBF" d="M164.2,183.9c-0.6-0.2-1.1-0.4-1.3-0.6c-0.3-0.3-0.4-0.6-0.4-1c0-0.4,0.2-0.8,0.5-1.1
		c0.3-0.3,0.8-0.4,1.3-0.4c0.4,0,0.7,0.1,1,0.2c0.3,0.1,0.5,0.3,0.7,0.6c0.2,0.3,0.2,0.5,0.2,0.8h-0.7c0-0.3-0.1-0.6-0.3-0.8
		c-0.2-0.2-0.5-0.3-0.9-0.3c-0.4,0-0.6,0.1-0.8,0.2s-0.3,0.4-0.3,0.6c0,0.2,0.1,0.4,0.3,0.6c0.2,0.2,0.5,0.3,1,0.4s0.8,0.3,1.1,0.4
		c0.3,0.2,0.4,0.3,0.6,0.5c0.1,0.2,0.2,0.4,0.2,0.7c0,0.4-0.2,0.8-0.5,1.1c-0.3,0.3-0.8,0.4-1.4,0.4c-0.4,0-0.7-0.1-1-0.2
		s-0.6-0.3-0.7-0.6c-0.2-0.2-0.3-0.5-0.3-0.8h0.7c0,0.3,0.1,0.6,0.4,0.8c0.2,0.2,0.6,0.3,1,0.3c0.4,0,0.7-0.1,0.9-0.2
		c0.2-0.2,0.3-0.4,0.3-0.6c0-0.3-0.1-0.5-0.3-0.6C165,184.2,164.7,184,164.2,183.9z"/>
	<path fill="#BBBDBF" d="M167.8,184.2v2.1h-0.7v-5.4h2c0.6,0,1.1,0.2,1.4,0.5c0.3,0.3,0.5,0.7,0.5,1.2c0,0.5-0.2,0.9-0.5,1.2
		c-0.3,0.3-0.8,0.4-1.4,0.4H167.8z M167.8,183.6h1.3c0.4,0,0.7-0.1,0.9-0.3s0.3-0.4,0.3-0.8c0-0.3-0.1-0.6-0.3-0.8s-0.5-0.3-0.8-0.3
		h-1.3V183.6z"/>
	<path fill="#BBBDBF" d="M210.2,186.7H209v2.2h-0.7v-5.4h1.8c0.6,0,1.1,0.1,1.4,0.4c0.3,0.3,0.5,0.7,0.5,1.2c0,0.3-0.1,0.6-0.3,0.9
		c-0.2,0.3-0.4,0.4-0.8,0.6l1.3,2.3v0h-0.8L210.2,186.7z M209,186.1h1.1c0.4,0,0.6-0.1,0.8-0.3c0.2-0.2,0.3-0.4,0.3-0.7
		c0-0.3-0.1-0.6-0.3-0.8c-0.2-0.2-0.5-0.3-0.9-0.3H209V186.1z"/>
	<path fill="#BBBDBF" d="M215.2,183.5h0.7v3.8c0,0.5-0.2,0.9-0.5,1.2c-0.3,0.3-0.7,0.4-1.2,0.4c-0.5,0-1-0.1-1.3-0.4
		c-0.3-0.3-0.4-0.7-0.4-1.2h0.7c0,0.3,0.1,0.6,0.3,0.7c0.2,0.2,0.4,0.3,0.7,0.3c0.3,0,0.5-0.1,0.7-0.3c0.2-0.2,0.3-0.4,0.3-0.8
		V183.5z"/>
	<path fill="#BBBDBF" d="M191.6,157.6l1.8,4.4l1.8-4.4h0.9v5.4h-0.7v-2.1l0.1-2.3l-1.8,4.4h-0.5l-1.8-4.4l0.1,2.3v2.1h-0.7v-5.4
		H191.6z"/>
	<path fill="#BBBDBF" d="M201.3,162.3c-0.2,0.3-0.4,0.5-0.8,0.6c-0.3,0.1-0.7,0.2-1.1,0.2c-0.4,0-0.8-0.1-1.2-0.3s-0.6-0.5-0.8-0.9
		c-0.2-0.4-0.3-0.8-0.3-1.3v-0.5c0-0.8,0.2-1.4,0.6-1.9c0.4-0.4,0.9-0.7,1.6-0.7c0.6,0,1,0.1,1.4,0.4c0.3,0.3,0.6,0.7,0.6,1.2h-0.7
		c-0.1-0.7-0.6-1.1-1.3-1.1c-0.5,0-0.8,0.2-1.1,0.5c-0.2,0.3-0.4,0.8-0.4,1.5v0.4c0,0.6,0.1,1.1,0.4,1.4c0.3,0.4,0.7,0.5,1.1,0.5
		c0.3,0,0.5,0,0.7-0.1c0.2-0.1,0.4-0.2,0.5-0.3v-1.2h-1.3v-0.6h2V162.3z"/>
	<path fill="#BBBDBF" d="M223.2,168.6h-2.3v1.9h2.7v0.6h-3.4v-5.4h3.4v0.6h-2.7v1.7h2.3V168.6z"/>
	<path fill="#BBBDBF" d="M226.1,168.7c-0.6-0.2-1.1-0.4-1.3-0.6c-0.3-0.3-0.4-0.6-0.4-1c0-0.4,0.2-0.8,0.5-1.1
		c0.3-0.3,0.8-0.4,1.3-0.4c0.4,0,0.7,0.1,1,0.2c0.3,0.1,0.5,0.3,0.7,0.6c0.2,0.3,0.2,0.5,0.2,0.8h-0.7c0-0.3-0.1-0.6-0.3-0.8
		c-0.2-0.2-0.5-0.3-0.9-0.3c-0.4,0-0.6,0.1-0.8,0.2s-0.3,0.4-0.3,0.6c0,0.2,0.1,0.4,0.3,0.6c0.2,0.2,0.5,0.3,1,0.4s0.8,0.3,1.1,0.4
		c0.3,0.2,0.4,0.3,0.6,0.5c0.1,0.2,0.2,0.4,0.2,0.7c0,0.4-0.2,0.8-0.5,1.1c-0.3,0.3-0.8,0.4-1.4,0.4c-0.4,0-0.7-0.1-1-0.2
		s-0.6-0.3-0.7-0.6c-0.2-0.2-0.3-0.5-0.3-0.8h0.7c0,0.3,0.1,0.6,0.4,0.8c0.2,0.2,0.6,0.3,1,0.3c0.4,0,0.7-0.1,0.9-0.2
		c0.2-0.2,0.3-0.4,0.3-0.6c0-0.3-0.1-0.5-0.3-0.6C226.9,169,226.6,168.9,226.1,168.7z"/>
	<path fill="#BBBDBF" d="M144.3,200.6v2.1h-0.7v-5.4h2c0.6,0,1.1,0.2,1.4,0.5c0.3,0.3,0.5,0.7,0.5,1.2c0,0.5-0.2,0.9-0.5,1.2
		c-0.3,0.3-0.8,0.4-1.4,0.4H144.3z M144.3,200h1.3c0.4,0,0.7-0.1,0.9-0.3s0.3-0.4,0.3-0.8c0-0.3-0.1-0.6-0.3-0.8s-0.5-0.3-0.8-0.3
		h-1.3V200z"/>
	<path fill="#BBBDBF" d="M150.3,200.5h-1.3v2.2h-0.7v-5.4h1.8c0.6,0,1.1,0.1,1.4,0.4c0.3,0.3,0.5,0.7,0.5,1.2c0,0.3-0.1,0.6-0.3,0.9
		c-0.2,0.3-0.4,0.4-0.8,0.6l1.3,2.3v0h-0.8L150.3,200.5z M149.1,199.9h1.1c0.4,0,0.6-0.1,0.8-0.3c0.2-0.2,0.3-0.4,0.3-0.7
		c0-0.3-0.1-0.6-0.3-0.8c-0.2-0.2-0.5-0.3-0.9-0.3h-1.1V199.9z"/>
	<path d="M157.3,218.1c-0.6-0.2-1.1-0.4-1.3-0.6c-0.3-0.3-0.4-0.6-0.4-1c0-0.4,0.2-0.8,0.5-1.1c0.3-0.3,0.8-0.4,1.3-0.4
		c0.4,0,0.7,0.1,1,0.2c0.3,0.1,0.5,0.3,0.7,0.6c0.2,0.3,0.2,0.5,0.2,0.8h-0.7c0-0.3-0.1-0.6-0.3-0.8c-0.2-0.2-0.5-0.3-0.9-0.3
		c-0.4,0-0.6,0.1-0.8,0.2s-0.3,0.4-0.3,0.6c0,0.2,0.1,0.4,0.3,0.6c0.2,0.2,0.5,0.3,1,0.4s0.8,0.3,1.1,0.4c0.3,0.2,0.4,0.3,0.6,0.5
		c0.1,0.2,0.2,0.4,0.2,0.7c0,0.4-0.2,0.8-0.5,1.1c-0.3,0.3-0.8,0.4-1.4,0.4c-0.4,0-0.7-0.1-1-0.2s-0.6-0.3-0.7-0.6
		c-0.2-0.2-0.3-0.5-0.3-0.8h0.7c0,0.3,0.1,0.6,0.4,0.8c0.2,0.2,0.6,0.3,1,0.3c0.4,0,0.7-0.1,0.9-0.2c0.2-0.2,0.3-0.4,0.3-0.6
		c0-0.3-0.1-0.5-0.3-0.6C158.1,218.4,157.8,218.3,157.3,218.1z"/>
	<path d="M164.2,218.8c-0.1,0.6-0.3,1-0.6,1.3c-0.4,0.3-0.8,0.5-1.4,0.5c-0.6,0-1.2-0.2-1.5-0.7c-0.4-0.5-0.6-1.1-0.6-1.8v-0.5
		c0-0.5,0.1-0.9,0.3-1.3c0.2-0.4,0.4-0.7,0.8-0.9c0.3-0.2,0.7-0.3,1.1-0.3c0.6,0,1,0.2,1.4,0.5s0.5,0.8,0.6,1.3h-0.7
		c-0.1-0.4-0.2-0.7-0.4-0.9c-0.2-0.2-0.5-0.3-0.9-0.3c-0.5,0-0.8,0.2-1.1,0.5c-0.3,0.3-0.4,0.8-0.4,1.4v0.5c0,0.6,0.1,1.1,0.4,1.4
		c0.2,0.3,0.6,0.5,1,0.5c0.4,0,0.7-0.1,0.9-0.3c0.2-0.2,0.4-0.5,0.4-0.9H164.2z"/>
	<path fill="#BBBDBF" d="M134.6,233.4h-1.3v2.2h-0.7v-5.4h1.8c0.6,0,1.1,0.1,1.4,0.4c0.3,0.3,0.5,0.7,0.5,1.2c0,0.3-0.1,0.6-0.3,0.9
		c-0.2,0.3-0.4,0.4-0.8,0.6l1.3,2.3v0h-0.8L134.6,233.4z M133.3,232.8h1.1c0.4,0,0.6-0.1,0.8-0.3c0.2-0.2,0.3-0.4,0.3-0.7
		c0-0.3-0.1-0.6-0.3-0.8c-0.2-0.2-0.5-0.3-0.9-0.3h-1.1V232.8z"/>
	<path fill="#BBBDBF" d="M138.9,233.1c-0.6-0.2-1.1-0.4-1.3-0.6c-0.3-0.3-0.4-0.6-0.4-1c0-0.4,0.2-0.8,0.5-1.1
		c0.3-0.3,0.8-0.4,1.3-0.4c0.4,0,0.7,0.1,1,0.2c0.3,0.1,0.5,0.3,0.7,0.6s0.2,0.5,0.2,0.8h-0.7c0-0.3-0.1-0.6-0.3-0.8
		c-0.2-0.2-0.5-0.3-0.9-0.3c-0.4,0-0.6,0.1-0.8,0.2s-0.3,0.4-0.3,0.6c0,0.2,0.1,0.4,0.3,0.6c0.2,0.2,0.5,0.3,1,0.4
		c0.5,0.1,0.8,0.3,1.1,0.4c0.3,0.2,0.4,0.3,0.6,0.5s0.2,0.4,0.2,0.7c0,0.4-0.2,0.8-0.5,1.1c-0.3,0.3-0.8,0.4-1.4,0.4
		c-0.4,0-0.7-0.1-1-0.2c-0.3-0.1-0.6-0.3-0.7-0.6c-0.2-0.2-0.3-0.5-0.3-0.8h0.7c0,0.3,0.1,0.6,0.4,0.8c0.2,0.2,0.6,0.3,1,0.3
		c0.4,0,0.7-0.1,0.9-0.2c0.2-0.2,0.3-0.4,0.3-0.6c0-0.3-0.1-0.5-0.3-0.6C139.7,233.4,139.4,233.3,138.9,233.1z"/>
	<path fill="#BBBDBF" d="M208.3,120.6v-5.4h1.8c0.6,0,1,0.1,1.3,0.4c0.3,0.2,0.4,0.6,0.4,1.1c0,0.3-0.1,0.5-0.2,0.7
		c-0.1,0.2-0.3,0.3-0.6,0.5c0.3,0.1,0.5,0.2,0.7,0.5c0.2,0.2,0.3,0.5,0.3,0.8c0,0.5-0.2,0.9-0.5,1.1c-0.3,0.3-0.8,0.4-1.3,0.4H208.3
		z M209,117.5h1.1c0.3,0,0.6-0.1,0.7-0.2c0.2-0.2,0.3-0.4,0.3-0.6c0-0.3-0.1-0.5-0.3-0.6c-0.2-0.1-0.4-0.2-0.8-0.2H209V117.5z
		 M209,118.1v1.9h1.2c0.3,0,0.6-0.1,0.8-0.3s0.3-0.4,0.3-0.7c0-0.7-0.4-1-1.1-1H209z"/>
	<path fill="#BBBDBF" d="M216,119.2h-2.3l-0.5,1.4h-0.7l2.1-5.4h0.6l2.1,5.4h-0.7L216,119.2z M213.9,118.6h1.8l-0.9-2.5L213.9,118.6
		z"/>
	<path fill="#BBBDBF" d="M186.1,66.9l1.8,4.4l1.8-4.4h0.9v5.4h-0.7v-2.1l0.1-2.3l-1.8,4.4h-0.5l-1.8-4.4l0.1,2.3v2.1h-0.7v-5.4
		H186.1z"/>
	<path fill="#BBBDBF" d="M194.9,70.9h-2.3l-0.5,1.4h-0.7l2.1-5.4h0.6l2.1,5.4h-0.7L194.9,70.9z M192.8,70.3h1.8l-0.9-2.5L192.8,70.3
		z"/>
	<path fill="#BBBDBF" d="M206.6,87.3v2.1h-0.7V84h2c0.6,0,1.1,0.2,1.4,0.5c0.3,0.3,0.5,0.7,0.5,1.2c0,0.5-0.2,0.9-0.5,1.2
		c-0.3,0.3-0.8,0.4-1.4,0.4H206.6z M206.6,86.8h1.3c0.4,0,0.7-0.1,0.9-0.3s0.3-0.4,0.3-0.8c0-0.3-0.1-0.6-0.3-0.8
		c-0.2-0.2-0.5-0.3-0.8-0.3h-1.3V86.8z"/>
	<path fill="#BBBDBF" d="M211.4,89.5h-0.7V84h0.7V89.5z"/>
	<path fill="#BBBDBF" d="M228.7,69.9c-0.1,0.6-0.3,1-0.6,1.3c-0.4,0.3-0.8,0.5-1.4,0.5c-0.6,0-1.2-0.2-1.5-0.7s-0.6-1.1-0.6-1.8
		v-0.5c0-0.5,0.1-0.9,0.3-1.3s0.4-0.7,0.8-0.9c0.3-0.2,0.7-0.3,1.1-0.3c0.6,0,1,0.2,1.4,0.5c0.3,0.3,0.5,0.8,0.6,1.3h-0.7
		c-0.1-0.4-0.2-0.7-0.4-0.9s-0.5-0.3-0.9-0.3c-0.5,0-0.8,0.2-1.1,0.5c-0.3,0.3-0.4,0.8-0.4,1.4v0.5c0,0.6,0.1,1.1,0.4,1.4
		c0.2,0.3,0.6,0.5,1,0.5c0.4,0,0.7-0.1,0.9-0.3s0.4-0.5,0.4-0.9H228.7z"/>
	<path fill="#BBBDBF" d="M232.7,69.1h-2.3V71h2.7v0.6h-3.4v-5.4h3.4v0.6h-2.7v1.7h2.3V69.1z"/>
	<path fill="#BBBDBF" d="M251.8,72.9h-1.3v2.2h-0.7v-5.4h1.8c0.6,0,1.1,0.1,1.4,0.4c0.3,0.3,0.5,0.7,0.5,1.2c0,0.3-0.1,0.6-0.3,0.9
		c-0.2,0.3-0.4,0.4-0.8,0.6l1.3,2.3v0h-0.8L251.8,72.9z M250.5,72.3h1.1c0.4,0,0.6-0.1,0.8-0.3c0.2-0.2,0.3-0.4,0.3-0.7
		c0-0.3-0.1-0.6-0.3-0.8c-0.2-0.2-0.5-0.3-0.9-0.3h-1.1V72.3z"/>
	<path fill="#BBBDBF" d="M258.6,75.1h-0.7l-2.7-4.2v4.2h-0.7v-5.4h0.7l2.7,4.2v-4.2h0.7V75.1z"/>
	<path fill="#BBBDBF" d="M255.1,82.3v2.1h-0.7V79h2c0.6,0,1.1,0.2,1.4,0.5c0.3,0.3,0.5,0.7,0.5,1.2c0,0.5-0.2,0.9-0.5,1.2
		c-0.3,0.3-0.8,0.4-1.4,0.4H255.1z M255.1,81.7h1.3c0.4,0,0.7-0.1,0.9-0.3s0.3-0.4,0.3-0.8c0-0.3-0.1-0.6-0.3-0.8
		c-0.2-0.2-0.5-0.3-0.8-0.3h-1.3V81.7z"/>
	<path fill="#BBBDBF" d="M259.2,84.4V79h1.8c0.6,0,1,0.1,1.3,0.4c0.3,0.2,0.4,0.6,0.4,1.1c0,0.3-0.1,0.5-0.2,0.7
		c-0.1,0.2-0.3,0.3-0.6,0.5c0.3,0.1,0.5,0.2,0.7,0.5c0.2,0.2,0.3,0.5,0.3,0.8c0,0.5-0.2,0.9-0.5,1.1c-0.3,0.3-0.8,0.4-1.3,0.4H259.2
		z M259.9,81.3h1.1c0.3,0,0.6-0.1,0.7-0.2c0.2-0.2,0.3-0.4,0.3-0.6c0-0.3-0.1-0.5-0.3-0.6c-0.2-0.1-0.4-0.2-0.8-0.2h-1.1V81.3z
		 M259.9,81.9v1.9h1.2c0.3,0,0.6-0.1,0.8-0.3c0.2-0.2,0.3-0.4,0.3-0.7c0-0.7-0.4-1-1.1-1H259.9z"/>
	<path fill="#BBBDBF" d="M254.9,91.2v2.1h-0.7v-5.4h2c0.6,0,1.1,0.2,1.4,0.5c0.3,0.3,0.5,0.7,0.5,1.2c0,0.5-0.2,0.9-0.5,1.2
		c-0.3,0.3-0.8,0.4-1.4,0.4H254.9z M254.9,90.6h1.3c0.4,0,0.7-0.1,0.9-0.3s0.3-0.4,0.3-0.8c0-0.3-0.1-0.6-0.3-0.8
		c-0.2-0.2-0.5-0.3-0.8-0.3h-1.3V90.6z"/>
	<path fill="#BBBDBF" d="M262,90.8h-2.3v1.9h2.7v0.6h-3.4v-5.4h3.4v0.6h-2.7v1.7h2.3V90.8z"/>
	<path fill="#BBBDBF" d="M253,101.2h-2.3l-0.5,1.4h-0.7l2.1-5.4h0.6l2.1,5.4h-0.7L253,101.2z M250.9,100.6h1.8l-0.9-2.5L250.9,100.6
		z"/>
	<path fill="#BBBDBF" d="M255.7,102h2.6v0.6h-3.3v-5.4h0.7V102z"/>
	<path fill="#BBBDBF" d="M243,108.7c-0.6-0.2-1.1-0.4-1.3-0.6c-0.3-0.3-0.4-0.6-0.4-0.9c0-0.4,0.2-0.8,0.5-1.1s0.8-0.4,1.3-0.4
		c0.4,0,0.7,0.1,1,0.2c0.3,0.1,0.5,0.3,0.7,0.6c0.2,0.3,0.2,0.5,0.2,0.8h-0.7c0-0.3-0.1-0.6-0.3-0.8c-0.2-0.2-0.5-0.3-0.9-0.3
		c-0.4,0-0.6,0.1-0.8,0.2c-0.2,0.2-0.3,0.4-0.3,0.6c0,0.2,0.1,0.4,0.3,0.6c0.2,0.2,0.5,0.3,1,0.4c0.5,0.1,0.8,0.3,1.1,0.4
		s0.4,0.3,0.6,0.5c0.1,0.2,0.2,0.4,0.2,0.7c0,0.4-0.2,0.8-0.5,1.1c-0.3,0.3-0.8,0.4-1.4,0.4c-0.4,0-0.7-0.1-1-0.2
		c-0.3-0.1-0.6-0.3-0.7-0.6c-0.2-0.2-0.3-0.5-0.3-0.8h0.7c0,0.3,0.1,0.6,0.4,0.8c0.2,0.2,0.6,0.3,1,0.3c0.4,0,0.7-0.1,0.9-0.2
		c0.2-0.2,0.3-0.4,0.3-0.6s-0.1-0.5-0.3-0.6S243.5,108.8,243,108.7z"/>
	<path fill="#BBBDBF" d="M248.9,108.6h-2.3v1.9h2.7v0.6h-3.4v-5.4h3.4v0.6h-2.7v1.7h2.3V108.6z"/>
	<path fill="#BBBDBF" d="M53.5,65.4h-2.3l-0.5,1.4H50l2.1-5.4h0.6l2.1,5.4H54L53.5,65.4z M51.5,64.9h1.8l-0.9-2.5L51.5,64.9z"/>
	<path fill="#BBBDBF" d="M56.4,61.4l1.8,4.4l1.8-4.4h0.9v5.4h-0.7v-2.1l0.1-2.3l-1.8,4.4h-0.5l-1.8-4.4l0.1,2.3v2.1h-0.7v-5.4H56.4z
		"/>
	<path fill="#BBBDBF" d="M80.6,22.3h-1.3v2.2h-0.7v-5.4h1.8c0.6,0,1.1,0.1,1.4,0.4c0.3,0.3,0.5,0.7,0.5,1.2c0,0.3-0.1,0.6-0.3,0.9
		c-0.2,0.3-0.4,0.4-0.8,0.6l1.3,2.3v0h-0.8L80.6,22.3z M79.3,21.7h1.1c0.4,0,0.6-0.1,0.8-0.3s0.3-0.4,0.3-0.7c0-0.3-0.1-0.6-0.3-0.8
		s-0.5-0.3-0.9-0.3h-1.1V21.7z"/>
	<path fill="#BBBDBF" d="M85.3,22.3H84v2.2h-0.7v-5.4h1.8c0.6,0,1.1,0.1,1.4,0.4c0.3,0.3,0.5,0.7,0.5,1.2c0,0.3-0.1,0.6-0.3,0.9
		c-0.2,0.3-0.4,0.4-0.8,0.6l1.3,2.3v0h-0.8L85.3,22.3z M84,21.7h1.1c0.4,0,0.6-0.1,0.8-0.3s0.3-0.4,0.3-0.7c0-0.3-0.1-0.6-0.3-0.8
		s-0.5-0.3-0.9-0.3H84V21.7z"/>
	<path fill="#BBBDBF" d="M145.3,26.7h-2.3l-0.5,1.4h-0.7l2.1-5.4h0.6l2.1,5.4h-0.7L145.3,26.7z M143.3,26.1h1.8l-0.9-2.5L143.3,26.1
		z"/>
	<path fill="#BBBDBF" d="M148,26v2.1h-0.7v-5.4h2c0.6,0,1.1,0.2,1.4,0.5c0.3,0.3,0.5,0.7,0.5,1.2c0,0.5-0.2,0.9-0.5,1.2
		c-0.3,0.3-0.8,0.4-1.4,0.4H148z M148,25.4h1.3c0.4,0,0.7-0.1,0.9-0.3s0.3-0.4,0.3-0.8c0-0.3-0.1-0.6-0.3-0.8
		c-0.2-0.2-0.5-0.3-0.8-0.3H148V25.4z"/>
	<path fill="#BBBDBF" d="M68.9,110.8h-1.3v2.2h-0.7v-5.4h1.8c0.6,0,1.1,0.1,1.4,0.4c0.3,0.3,0.5,0.7,0.5,1.2c0,0.3-0.1,0.6-0.3,0.9
		c-0.2,0.3-0.4,0.4-0.8,0.6l1.3,2.3v0h-0.8L68.9,110.8z M67.6,110.2h1.1c0.4,0,0.6-0.1,0.8-0.3s0.3-0.4,0.3-0.7
		c0-0.3-0.1-0.6-0.3-0.8s-0.5-0.3-0.9-0.3h-1.1V110.2z"/>
	<path fill="#BBBDBF" d="M75.8,110.5c0,0.5-0.1,1-0.3,1.4c-0.2,0.4-0.4,0.7-0.8,0.9c-0.3,0.2-0.7,0.3-1.1,0.3
		c-0.4,0-0.8-0.1-1.1-0.3s-0.6-0.5-0.8-0.9s-0.3-0.8-0.3-1.3v-0.4c0-0.5,0.1-1,0.3-1.4c0.2-0.4,0.4-0.7,0.8-0.9
		c0.3-0.2,0.7-0.3,1.1-0.3c0.4,0,0.8,0.1,1.1,0.3c0.3,0.2,0.6,0.5,0.8,0.9c0.2,0.4,0.3,0.9,0.3,1.4V110.5z M75.1,110.1
		c0-0.6-0.1-1.1-0.4-1.5s-0.6-0.5-1.1-0.5c-0.5,0-0.8,0.2-1.1,0.5s-0.4,0.8-0.4,1.4v0.4c0,0.6,0.1,1.1,0.4,1.5
		c0.3,0.4,0.6,0.5,1.1,0.5c0.5,0,0.8-0.2,1.1-0.5c0.3-0.3,0.4-0.8,0.4-1.4V110.1z"/>
	<path fill="#BBBDBF" d="M169.4,102.5h-1.7v4.8H167v-4.8h-1.7v-0.6h4.2V102.5z"/>
	<path fill="#BBBDBF" d="M174.3,104.8c0,0.5-0.1,1-0.3,1.4c-0.2,0.4-0.4,0.7-0.8,0.9c-0.3,0.2-0.7,0.3-1.1,0.3
		c-0.4,0-0.8-0.1-1.1-0.3c-0.3-0.2-0.6-0.5-0.8-0.9c-0.2-0.4-0.3-0.8-0.3-1.3v-0.4c0-0.5,0.1-1,0.3-1.4s0.4-0.7,0.8-0.9
		s0.7-0.3,1.1-0.3c0.4,0,0.8,0.1,1.1,0.3c0.3,0.2,0.6,0.5,0.8,0.9s0.3,0.9,0.3,1.4V104.8z M173.6,104.4c0-0.6-0.1-1.1-0.4-1.5
		s-0.6-0.5-1.1-0.5c-0.5,0-0.8,0.2-1.1,0.5c-0.3,0.3-0.4,0.8-0.4,1.4v0.4c0,0.6,0.1,1.1,0.4,1.5c0.3,0.4,0.6,0.5,1.1,0.5
		c0.5,0,0.8-0.2,1.1-0.5c0.3-0.3,0.4-0.8,0.4-1.4V104.4z"/>
	<path fill="#BBBDBF" d="M28,103h-2.3l-0.5,1.4h-0.7l2.1-5.4h0.6l2.1,5.4h-0.7L28,103z M26,102.4h1.8l-0.9-2.5L26,102.4z"/>
	<path fill="#BBBDBF" d="M34,102.7c-0.1,0.6-0.3,1-0.6,1.3c-0.4,0.3-0.8,0.5-1.4,0.5c-0.6,0-1.2-0.2-1.5-0.7s-0.6-1.1-0.6-1.8v-0.5
		c0-0.5,0.1-0.9,0.3-1.3s0.4-0.7,0.8-0.9c0.3-0.2,0.7-0.3,1.1-0.3c0.6,0,1,0.2,1.4,0.5c0.3,0.3,0.5,0.8,0.6,1.3h-0.7
		c-0.1-0.4-0.2-0.7-0.4-0.9c-0.2-0.2-0.5-0.3-0.9-0.3c-0.5,0-0.8,0.2-1.1,0.5s-0.4,0.8-0.4,1.4v0.5c0,0.6,0.1,1.1,0.4,1.4
		c0.2,0.3,0.6,0.5,1,0.5c0.4,0,0.7-0.1,0.9-0.3s0.4-0.5,0.4-0.9H34z"/>
	<path fill="#BBBDBF" d="M135,67.8V70h-0.7v-5.4h2c0.6,0,1.1,0.2,1.4,0.5c0.3,0.3,0.5,0.7,0.5,1.2c0,0.5-0.2,0.9-0.5,1.2
		c-0.3,0.3-0.8,0.4-1.4,0.4H135z M135,67.2h1.3c0.4,0,0.7-0.1,0.9-0.3s0.3-0.4,0.3-0.8c0-0.3-0.1-0.6-0.3-0.8
		c-0.2-0.2-0.5-0.3-0.8-0.3H135V67.2z"/>
	<path fill="#BBBDBF" d="M141.5,68.5h-2.3l-0.5,1.4H138l2.1-5.4h0.6l2.1,5.4h-0.7L141.5,68.5z M139.5,68h1.8l-0.9-2.5L139.5,68z"/>
</g>
</svg>
